<svg xmlns="http://www.w3.org/2000/svg" viewBox="0 0 578.38 233.22"><defs><style>.a{fill:#2563eb;}</style></defs><path class="a" d="M80,20.48a216.28,216.28,0,0,1-9.84,57.76c5.14-5.19,10.41-11,15.72-17.58Z" transform="translate(-8.87 -8.39)"/><path class="a" d="M33.2,130.76C19.84,140.42,8.87,144,8.87,144L110.3,241.61l-6.41-43.78Z" transform="translate(-8.87 -8.39)"/><path class="a" d="M126.22,8.39c-31.85,92.29-94.94,105-94.94,105l121.18,115Z" transform="translate(-8.87 -8.39)"/><path d="M235.36,142h-30l-5.71,17.12h-18.2l30.93-83.08h15.86l31.1,83.08h-18.2ZM210,128.17h20.77L220.3,97.07Z" transform="translate(-8.87 -8.39)"/><path d="M263.89,101.58l-7.76-4.51a30.45,30.45,0,0,0,5.08-15.92V71.51h13.12v8.84a26.14,26.14,0,0,1-2.85,11.13A30.58,30.58,0,0,1,263.89,101.58Z" transform="translate(-8.87 -8.39)"/><path d="M318.9,159.15a18.54,18.54,0,0,1-1.66-5.53,19.93,19.93,0,0,1-15.57,6.67q-9.07,0-15-5.25a16.86,16.86,0,0,1-6-13.24q0-9.81,7.27-15.06t21-5.31h7.59V117.9a10.14,10.14,0,0,0-2.2-6.85q-2.19-2.56-6.93-2.57a9.8,9.8,0,0,0-6.53,2,6.79,6.79,0,0,0-2.37,5.48H282a16.53,16.53,0,0,1,3.31-9.93,21.77,21.77,0,0,1,9.35-7.16,34.16,34.16,0,0,1,13.59-2.6q11.4,0,18.11,5.73t6.71,16.12v26.77c0,5.85.85,10.29,2.45,13.29v1Zm-13.64-11.47a14.24,14.24,0,0,0,6.73-1.62,10.69,10.69,0,0,0,4.57-4.37V131.08H310.4q-12.39,0-13.19,8.56l0,1a6.57,6.57,0,0,0,2.17,5.07A8.37,8.37,0,0,0,305.26,147.68Z" transform="translate(-8.87 -8.39)"/><path d="M368,135.81l11.41-38.4h17.69l-24.82,71.33L370.88,172q-5.53,12.09-18.26,12.09a26,26,0,0,1-7.3-1.08V170.5l2.51.06q4.68,0,7-1.42a9.38,9.38,0,0,0,3.62-4.74l1.94-5.08L338.75,97.41H356.5Z" transform="translate(-8.87 -8.39)"/><path d="M440.55,152.87q-6.1,7.42-16.89,7.42-9.93,0-15.15-5.7t-5.33-16.72V97.41h16.49v39.93q0,9.66,8.78,9.66,8.39,0,11.53-5.83V97.41h16.55v61.74H441Z" transform="translate(-8.87 -8.39)"/><path d="M466.4,127.82q0-14.43,6.47-23t17.72-8.56A18.93,18.93,0,0,1,505.48,103V71.51H522v87.64H507.14l-.8-6.56a19.42,19.42,0,0,1-15.86,7.7A20.94,20.94,0,0,1,473,151.7Q466.39,143.12,466.4,127.82Zm16.49,1.23q0,8.69,3,13.32A9.88,9.88,0,0,0,494.7,147q7.64,0,10.78-6.46v-24.4q-3.08-6.47-10.67-6.46Q482.89,109.68,482.89,129.05Z" transform="translate(-8.87 -8.39)"/><path d="M570.59,159.15a18.54,18.54,0,0,1-1.66-5.53,19.93,19.93,0,0,1-15.57,6.67q-9.08,0-15-5.25a16.86,16.86,0,0,1-6-13.24q0-9.81,7.27-15.06t21-5.31h7.59V117.9a10.14,10.14,0,0,0-2.2-6.85q-2.19-2.56-6.93-2.57a9.85,9.85,0,0,0-6.54,2,6.81,6.81,0,0,0-2.36,5.48H533.73A16.53,16.53,0,0,1,537,106a21.77,21.77,0,0,1,9.35-7.16A34.15,34.15,0,0,1,560,96.27q11.41,0,18.12,5.73t6.7,16.12v26.77c0,5.85.86,10.29,2.46,13.29v1ZM557,147.68a14.24,14.24,0,0,0,6.73-1.62,10.69,10.69,0,0,0,4.57-4.37V131.08h-6.16q-12.39,0-13.18,8.56l-.06,1a6.57,6.57,0,0,0,2.17,5.07A8.37,8.37,0,0,0,557,147.68Z" transform="translate(-8.87 -8.39)"/></svg>