<?xml version="1.0" standalone="no"?>
<!DOCTYPE svg PUBLIC "-//W3C//DTD SVG 20010904//EN"
 "http://www.w3.org/TR/2001/REC-SVG-20010904/DTD/svg10.dtd">
<svg version="1.0" xmlns="http://www.w3.org/2000/svg"
 width="1400.000000pt" height="1400.000000pt" viewBox="0 0 1400.000000 1400.000000"
 preserveAspectRatio="xMidYMid meet">
<metadata>
Created by potrace 1.14, written by Peter Selinger 2001-2017
</metadata>
<g transform="translate(0.000000,1400.000000) scale(0.100000,-0.100000)"
fill="#000000" stroke="none">
<path d="M9695 13883 c-21 -59 -44 -121 -51 -138 -7 -16 -22 -57 -33 -90 -12
-33 -25 -69 -30 -80 -5 -11 -17 -40 -26 -65 -9 -25 -22 -56 -28 -70 -5 -14
-11 -29 -13 -35 -1 -5 -8 -23 -15 -40 -7 -16 -13 -32 -14 -35 -5 -16 -18 -48
-26 -65 -9 -21 -31 -77 -34 -85 -1 -3 -9 -23 -19 -45 -10 -22 -26 -62 -37 -89
-11 -27 -25 -58 -31 -70 -7 -12 -13 -25 -14 -31 -1 -5 -18 -46 -38 -90 -20
-44 -42 -91 -48 -105 -5 -14 -14 -32 -19 -40 -5 -8 -12 -22 -15 -30 -4 -8 -20
-43 -35 -78 -16 -35 -29 -68 -29 -73 0 -5 -4 -9 -10 -9 -5 0 -10 -6 -10 -13 0
-17 -230 -474 -278 -552 -4 -5 -7 -16 -9 -24 -1 -8 -6 -17 -11 -20 -4 -3 -32
-49 -60 -101 -70 -128 -85 -154 -97 -162 -5 -4 -6 -8 -1 -8 5 0 2 -8 -6 -17
-9 -10 -25 -36 -37 -58 -12 -22 -29 -52 -39 -67 -9 -15 -43 -70 -74 -122 -63
-103 -201 -314 -217 -333 -6 -7 -11 -17 -11 -23 0 -5 -4 -10 -10 -10 -5 0 -10
-6 -10 -13 0 -7 -8 -22 -18 -33 -9 -10 -35 -46 -57 -79 -22 -33 -48 -69 -58
-80 -10 -11 -26 -33 -34 -50 -9 -16 -21 -34 -27 -40 -6 -7 -32 -40 -56 -75
-25 -34 -52 -70 -60 -79 -8 -9 -26 -32 -40 -51 -13 -19 -27 -37 -30 -40 -3 -3
-17 -21 -31 -40 -15 -19 -35 -45 -45 -57 -11 -12 -35 -42 -54 -68 -19 -25 -46
-59 -60 -74 -14 -15 -43 -50 -65 -76 -22 -27 -50 -60 -63 -73 -12 -14 -41 -48
-65 -75 -23 -28 -55 -64 -71 -81 -233 -253 -372 -394 -546 -556 -62 -58 -128
-120 -147 -137 -19 -18 -36 -33 -39 -33 -2 0 -16 -12 -32 -27 -15 -16 -45 -41
-66 -58 -21 -16 -48 -39 -60 -50 -59 -53 -86 -75 -91 -75 -3 0 -13 -8 -23 -17
-10 -10 -35 -31 -57 -48 -21 -16 -61 -48 -89 -70 -28 -23 -112 -84 -186 -138
-74 -53 -139 -101 -145 -105 -26 -20 -261 -172 -355 -229 -58 -35 -112 -68
-120 -73 -8 -6 -27 -16 -42 -23 -16 -6 -28 -15 -28 -19 0 -4 -4 -8 -9 -8 -5 0
-69 -33 -142 -72 -74 -40 -135 -71 -138 -70 -2 2 -7 0 -10 -5 -3 -4 -35 -21
-71 -38 -36 -16 -67 -32 -70 -35 -3 -3 -41 -21 -85 -40 -44 -19 -91 -41 -105
-49 -13 -9 -27 -15 -30 -15 -5 2 -37 -9 -85 -30 -16 -7 -48 -20 -70 -29 -22
-8 -76 -29 -120 -46 -44 -17 -87 -31 -96 -31 -9 0 -19 -3 -23 -7 -4 -5 -11 -8
-14 -9 -4 0 -52 -14 -107 -31 -55 -17 -120 -36 -144 -43 l-45 -12 90 -84 c49
-47 152 -144 228 -217 76 -73 163 -154 192 -182 29 -27 107 -102 174 -165 67
-63 159 -151 205 -195 46 -44 126 -120 179 -170 53 -49 147 -138 209 -198 62
-59 157 -150 212 -201 55 -52 128 -121 161 -153 34 -32 128 -121 209 -198 81
-77 183 -174 226 -216 44 -41 79 -75 79 -74 0 1 33 -30 74 -69 64 -62 263
-251 396 -376 54 -51 294 -279 389 -370 38 -36 133 -126 211 -200 79 -74 169
-160 201 -190 31 -30 121 -116 200 -190 78 -74 165 -157 193 -183 27 -26 117
-112 200 -190 82 -78 176 -167 208 -198 32 -30 113 -107 179 -170 67 -63 145
-136 173 -164 47 -44 113 -107 464 -440 46 -44 118 -112 158 -151 41 -39 74
-70 74 -69 0 1 33 -30 74 -69 73 -71 297 -284 454 -432 46 -44 122 -115 167
-159 46 -44 132 -125 190 -180 58 -55 134 -127 169 -160 35 -33 122 -116 195
-185 73 -69 172 -163 221 -210 48 -47 143 -137 210 -200 68 -63 161 -152 209
-197 47 -46 90 -83 95 -83 5 0 5 15 2 33 -4 17 -9 56 -11 85 -3 29 -7 65 -10
80 -3 15 -7 50 -10 77 -7 75 -16 146 -22 180 -3 17 -6 56 -7 87 0 32 -4 58 -7
58 -3 0 -6 20 -8 44 -1 25 -4 54 -6 66 -2 12 -7 48 -11 79 -3 31 -8 70 -10 86
-2 17 -6 55 -9 85 -4 30 -8 66 -11 80 -2 14 -6 50 -9 80 -3 30 -10 89 -15 130
-15 116 -19 151 -26 210 -4 30 -8 66 -10 80 -5 41 -15 132 -19 175 -2 22 -6
54 -9 70 -8 59 -19 140 -21 170 -2 17 -3 30 -4 30 -1 0 -4 20 -6 45 -4 58 -16
158 -20 181 -2 10 -7 49 -10 86 -8 79 -13 118 -15 118 -1 0 -3 20 -5 45 -2 25
-6 63 -9 85 -3 22 -10 78 -16 125 -5 47 -12 103 -15 125 -3 22 -8 60 -10 85
-11 101 -14 127 -20 165 -2 22 -7 63 -10 90 -3 28 -8 68 -11 90 -3 22 -8 58
-10 80 -3 22 -6 54 -8 70 -2 17 -7 61 -11 100 -4 38 -9 78 -11 90 -5 20 -11
74 -19 165 -2 25 -7 61 -9 80 -3 19 -8 58 -11 85 -4 28 -8 61 -10 75 -2 14 -6
45 -9 70 -3 25 -8 65 -12 90 -3 25 -7 63 -9 85 -4 46 -13 126 -19 170 -4 29
-10 70 -22 170 -3 28 -7 61 -9 75 -1 14 -6 57 -10 95 -4 39 -8 77 -10 85 -2 8
-6 44 -10 80 -4 36 -8 72 -10 80 -1 8 -6 47 -10 85 -4 39 -9 84 -11 100 -2 17
-6 53 -9 80 -3 28 -8 61 -10 75 -2 14 -9 68 -15 120 -6 52 -13 113 -15 135 -3
22 -7 60 -10 85 -2 25 -7 59 -9 75 -3 17 -7 53 -10 80 -7 64 -16 143 -20 175
-2 14 -7 50 -10 80 -4 30 -9 71 -12 91 -2 20 -7 56 -9 80 -3 24 -7 62 -10 84
-3 22 -7 58 -10 80 -2 22 -4 40 -5 40 -1 0 -3 18 -4 40 -2 22 -6 61 -10 88 -6
45 -10 82 -21 177 -5 41 -9 74 -20 165 -2 17 -6 55 -10 85 -3 30 -8 69 -10 85
-10 73 -16 122 -20 155 -2 19 -6 55 -9 80 -5 43 -8 67 -21 190 -6 58 -12 99
-19 140 -2 14 -7 57 -11 95 -3 39 -8 81 -10 95 -1 14 -6 50 -10 80 -4 30 -9
69 -10 87 -9 87 -32 278 -35 278 -1 0 -3 16 -5 35 -3 36 -12 118 -20 180 -2
19 -6 60 -10 90 -3 30 -7 66 -9 80 -3 14 -8 52 -11 85 -4 33 -9 76 -11 95 -3
19 -6 61 -9 93 -2 31 -6 61 -9 65 -2 4 -7 37 -10 72 -3 36 -9 83 -12 105 -3
22 -7 56 -9 75 -1 19 -6 54 -9 76 -4 23 -8 61 -11 85 -2 24 -7 64 -10 89 -4
25 -8 63 -10 85 -2 22 -6 54 -8 70 -3 17 -8 57 -11 90 -4 33 -9 74 -12 90 -2
17 -6 55 -9 85 -2 30 -6 66 -9 80 -3 14 -8 52 -11 85 -3 33 -8 74 -10 90 -2
17 -7 53 -10 80 -3 28 -8 64 -10 80 -3 17 -7 57 -11 90 -8 74 -12 110 -18 155
-2 19 -7 64 -11 100 -4 36 -9 76 -11 90 -3 14 -7 45 -9 70 -3 25 -7 61 -9 80
-3 19 -8 62 -11 95 -4 33 -8 67 -9 75 -3 16 -13 102 -22 180 -3 25 -7 61 -10
80 -2 19 -6 53 -8 75 -2 22 -7 61 -10 88 -3 26 -8 66 -11 90 -3 23 -7 53 -9
67 -3 14 -7 52 -10 85 -4 33 -8 76 -11 95 -2 19 -7 55 -9 80 -3 25 -7 61 -10
80 -8 57 -15 121 -22 184 -3 33 -8 69 -10 80 -7 37 -18 150 -19 189 0 20 -2
37 -5 37 -3 0 -7 17 -9 38 -7 86 -10 117 -11 117 -1 0 -4 14 -5 30 -2 17 -6
53 -9 80 -4 28 -9 70 -12 95 -6 63 -13 120 -18 150 -3 14 -7 57 -11 95 -4 39
-8 71 -10 73 -1 2 -20 -46 -40 -105z"/>
<path d="M6954 13182 c-1 -71 -14 -311 -19 -357 -2 -22 -7 -80 -10 -130 -12
-160 -14 -190 -30 -335 -4 -38 -16 -146 -20 -195 -2 -16 -4 -32 -5 -35 -1 -3
-2 -8 -2 -11 1 -4 -3 -33 -8 -65 -5 -33 -11 -86 -15 -119 -3 -33 -8 -67 -10
-75 -2 -8 -6 -37 -10 -65 -7 -55 -7 -61 -29 -190 -8 -49 -18 -110 -21 -135 -4
-24 -8 -47 -10 -50 -2 -3 -6 -26 -10 -50 -11 -77 -16 -104 -25 -140 -5 -19
-11 -53 -14 -75 -3 -22 -10 -59 -16 -83 -5 -23 -13 -59 -16 -80 -3 -20 -8 -40
-11 -44 -4 -8 -8 -26 -19 -83 -3 -16 -16 -77 -30 -135 -14 -58 -27 -114 -29
-125 -2 -11 -4 -20 -5 -20 -1 0 -3 -9 -6 -20 -2 -11 -22 -87 -44 -170 -22 -82
-43 -159 -45 -170 -3 -11 -14 -50 -26 -88 -11 -37 -22 -75 -24 -85 -2 -9 -4
-18 -5 -19 -2 -2 -3 -6 -4 -10 -2 -9 -26 -89 -33 -113 -2 -8 -4 -16 -3 -18 0
-1 -6 -15 -14 -31 -40 -77 8 -34 244 219 58 61 116 124 130 138 14 15 59 65
100 112 41 47 77 87 80 90 8 8 140 162 185 216 22 26 48 56 58 66 9 10 17 23
17 28 0 6 3 10 8 10 4 0 25 23 47 51 22 28 45 57 52 64 7 7 10 15 8 17 -3 2
-7 22 -10 44 -3 21 -8 55 -11 74 -7 39 -13 89 -18 135 -2 17 -6 44 -10 60 -3
17 -8 48 -11 70 -3 22 -8 54 -10 70 -3 17 -7 52 -11 79 -3 27 -8 58 -10 70 -2
12 -7 44 -10 71 -7 52 -12 80 -14 80 -1 0 -3 18 -5 40 -3 21 -7 53 -9 70 -3
16 -8 53 -12 80 -3 28 -8 59 -10 70 -6 32 -17 107 -20 140 -1 17 -3 30 -4 30
-1 0 -3 14 -5 30 -2 17 -6 46 -9 65 -4 19 -9 49 -11 65 -2 17 -9 62 -15 100
-6 39 -13 81 -14 95 -2 14 -7 45 -10 70 -11 77 -14 103 -25 170 -6 36 -13 88
-16 115 -4 28 -9 61 -11 75 -3 14 -7 39 -9 55 -1 17 -11 80 -20 140 -17 107
-22 141 -24 178 -2 38 -16 14 -17 -31z"/>
<path d="M4126 6637 c-11 -7 -29 -20 -40 -29 -11 -10 -25 -18 -30 -18 -6 0
-22 -12 -35 -25 -13 -14 -29 -25 -36 -25 -7 0 -15 -3 -17 -8 -4 -9 -144 -102
-263 -173 -49 -30 -91 -57 -93 -61 -2 -5 -8 -8 -12 -8 -5 0 -31 -13 -57 -28
-156 -92 -444 -237 -608 -307 -147 -62 -143 -60 -197 -80 l-47 -16 58 -57 c32
-31 136 -131 231 -222 94 -91 221 -212 280 -270 60 -58 189 -181 286 -275 98
-93 201 -192 229 -220 29 -27 141 -136 251 -242 109 -105 242 -233 294 -283
52 -50 161 -155 242 -232 201 -192 394 -378 433 -418 6 -6 46 -45 91 -88 182
-174 482 -462 560 -537 45 -44 157 -152 249 -240 92 -88 221 -212 286 -275 66
-63 194 -187 286 -275 91 -88 202 -195 246 -237 43 -43 80 -78 81 -78 1 0 59
-55 128 -123 154 -149 430 -415 555 -534 91 -88 352 -339 526 -506 426 -410
506 -487 713 -687 l62 -60 -4 33 c-1 17 -3 32 -4 32 -1 0 -3 11 -5 25 -3 32
-14 108 -20 140 -3 14 -7 45 -10 70 -3 25 -9 70 -14 100 -6 30 -12 75 -15 100
-6 43 -8 57 -22 145 -4 22 -7 52 -8 68 0 15 -5 27 -9 27 -5 0 -6 4 -3 9 3 4 1
35 -4 67 -11 72 -18 122 -25 169 -3 19 -8 52 -11 73 -3 20 -7 52 -9 70 -2 18
-6 45 -9 60 -3 15 -8 47 -11 72 -3 25 -10 70 -15 100 -6 30 -12 73 -14 95 -3
22 -8 56 -11 75 -3 19 -10 64 -15 100 -5 36 -12 83 -15 105 -4 22 -8 54 -10
70 -10 68 -26 182 -32 215 -3 19 -7 49 -8 65 -2 17 -4 30 -5 30 -2 0 -5 20
-14 95 -3 30 -8 66 -12 80 -3 14 -7 41 -9 60 -3 19 -8 53 -11 75 -3 22 -8 54
-9 70 -2 17 -4 30 -5 30 -1 0 -3 14 -5 30 -8 65 -18 79 -116 173 -56 53 -128
122 -160 152 -68 65 -280 266 -348 330 -26 25 -124 117 -216 205 -93 88 -183
174 -200 190 -18 17 -99 94 -181 172 -82 78 -172 163 -200 190 -29 26 -120
113 -204 193 -84 80 -170 161 -190 180 -21 19 -111 105 -200 190 -165 157
-322 306 -390 370 -20 19 -80 76 -132 125 -52 50 -163 155 -248 235 -84 80
-186 177 -226 216 -41 39 -74 70 -74 70 0 -1 -35 32 -79 74 -43 41 -118 113
-167 159 -105 99 -362 343 -444 421 -31 30 -122 116 -200 190 -79 74 -172 163
-208 198 -36 34 -68 62 -71 61 -3 0 -15 -6 -25 -12z"/>
</g>
</svg>
